<svg xmlns="http://www.w3.org/2000/svg" >
    <symbol id="default-logo" viewBox="0 0 737 425.2">
        <path d="M134.5,264.7c9.6-4.2,19.8-7.5,29.6-10.7c2.4-0.8,4.8-1.6,7.2-2.4c1.2-0.4,2.5-0.8,3.8-1.2c5.8-1.8,12.3-3.8,17-8 c3.6-3.2,4.7-7.4,3-11.5c-1.9-4.8-7.2-8.2-12.6-8c-10.7,0.3-22.4,4-32.7,7.4l-3.1,1c-5.2,1.7-10.8,3.7-17.7,6.4 c-1.8,0.7-6.2,2.4-7.7,1.5c-0.7-0.4-0.8-1.7-0.9-2.5c-0.3-4.3,1-9.6,2.2-14.3c0.4-1.5,0.7-2.9,1-4.3c0.5-2.4,1-4.7,1.5-7.1 c0.9-4.4,1.8-9,3.1-13.4c3-10.5,8.1-19.7,15.8-28.3c16.1-18.2,38-34.2,55.3-46.2c18.4-12.7,35.5-23.3,52.3-32.4 c17.3-9.4,31.7-16.5,45.3-22.6c9.4-4.2,19.5-7.1,29.2-10c9.4-2.7,19.1-5.6,28.3-9.5c5-2.1,9.9-4.7,12.2-9.3 c1.4-2.7,1.7-5.7,0.8-8.5c-0.8-2.5-2.6-4.5-5-5.7h0c-11.4-5.7-23.9-0.4-33.9,3.9l-0.9,0.4c-8.2,3.5-16.7,6.9-24.8,10.2 c-3.5,1.4-7,2.8-10.4,4.3c-22.8,9.3-45.3,20.4-68.8,33.9c-50.3,28.9-72.9,48.4-83.5,58c-0.1,0-0.9,0.7-0.9,0.8 c-1.4,1.3-2.3,1.6-3.1,1.3c-0.8-0.3-1.6-1.2-1.2-4.4c0-0.1,0-0.1,0-0.2c0.1-0.9,0.1-1.7,0.2-2.3c0.2-4.7-0.3-9.9-1.2-14.8 c-1-5.2-5-10-9.7-11.6c-3.9-1.4-8-0.5-11.4,2.5c-6,5.3-6,14.6-5.9,22.1c0,2.3,0,4.5-0.1,6.3c-0.1,1.7-0.3,3.4-0.4,5.2 c-0.8,11.1-1.6,22.5-5.7,32.2c-3.2,7.7-8.1,13-13.8,19.1c-1.3,1.4-2.6,2.9-4,4.4c-8,9-32.1,39.4-40.2,53.8 c-10.6,18.8-24.1,49.8-27.5,75.1c-1.8,13.7-2,26.4-0.6,37.7c1.5,12.4,4.9,22.9,10.4,32c6.5,11,14.9,16.8,24.2,16.8 c0.6,0,1.2,0,1.8-0.1c16.7-1.3,29-7.4,46.1-77.9c1-4,1.9-8,2.9-12.1c3-13,6.2-26.4,10.4-38.9c3.2-9.3,12.6-13.4,21.8-17.3 L134.5,264.7z M95.3,230.7c-1.3,7.4-4.1,20-5.4,27.4c-2.8,15.5-5.9,31-9.5,46.3c-4.2,17.6-7.8,35.5-13.5,52.7 c-3.7,11.1-17.4,34.7-24.5,14.9c-4.4-12.4-4.5-25.7-2.8-38.5c1.7-13.4,4.4-25.8,9.3-38.3c4.8-12.4,9.3-23.9,15.6-35.7 c5.7-10.8,15.7-26.8,24.8-35.2c1.1-1,4.4-3,6-1.7C97.2,224.2,95.7,228.8,95.3,230.7z"/><path d="M296.1,116.8c-10,3-15.5,14.5-19.2,22.1c-2.4,5-4.9,10.2-6.3,15.9c-0.9,3.7-2.7,10.5,3.8,13.8c2.1,1.1,4.3,1.6,6.5,1.6 c6.6,0,12.8-4.7,15.8-10.7c1-2,1.8-4,2.6-6c0.9-2.1,1.7-4.2,2.7-6.1c0.7-1.4,1.5-2.8,2.3-4.1c1.8-3.2,3.7-6.5,4.9-10.2 c1.2-3.5,2.1-8.5-0.1-12.5C306.8,116.4,302.1,115,296.1,116.8z"/><path d="M530,303.3c-7.1-7.7-20.1-5.5-31.5-3.5c-2.4,0.4-4.6,0.8-6.7,1.1c-18.5,2.4-35.3,4.7-51.5,6.9 c-32.7,4.5-65.7,11.1-97.7,17.5l-5.6,1.1c-30.5,6.1-65.9,13.6-99.6,25.5c-15.8,5.6-31.6,11.2-47.4,16.8c-6.2,2.2-12.4,4.7-18.4,7 c-7.2,2.8-14.6,5.8-22,8.3c-1.1,0.4-2.2,0.7-3.4,1.1c-7.6,2.3-17,5.2-19.6,13.9c-1,3.3-0.4,6.3,1.8,8.5c2.5,2.6,6.6,3.7,10.6,3.7 c2,0,4-0.3,5.8-0.7c17.5-4.6,26.6-8.5,39.2-13.9c1.6-0.7,3.2-1.4,5-2.1c66.4-28.2,128.3-41.2,185.4-51 c33.3-5.7,67.4-10.3,100.5-14.7l3.7-0.5c2.4-0.3,5.4-0.6,8.9-1c22.3-2.4,41-4.9,44.4-12.4c1.7-3.8,1.1-7.8-1.8-11.3L530,303.3z"/><path d="M717.2,14.9c-2.4-1.4-4.9-1.8-7.6-1.1c-8.5,2.2-15.9,15.3-19.9,22.3c-0.5,0.8-0.9,1.6-1.3,2.2c-3.9,6.7-7.1,12.8-9.7,18.9 l-1.4,3.3c-8.5,20-17.3,40.6-27.1,60.4c-2.9,5.7-5.7,11.3-8.5,16.4c-0.4,0.8-0.9,1.6-1.3,2.5c-2.4,4.6-4.7,8.9-8.4,11.9 c-6,4.8-12.6,2.9-20.2,0.7c-2.8-0.8-5.7-1.7-8.5-2.1c-23.1-3.8-46.3,8.1-61.6,18.8c-13.7,9.6-26,21.1-37.8,32.2 c-8.6,8-17.4,16.3-26.7,23.8l-0.4,0.3c-4.5,3.6-9.1,7.3-14,10.4l-0.3,0.2c-2.6,1.7-5.3,3.4-7.9,3.6c-3.5,0.3-6-2.4-7.3-8 c-2.1-8.9-0.7-20.8,3.8-32.8c3.7-9.7,12.5-18.5,20.3-26.2l1.3-1.3c11.8-11.7,17.9-17.9,26.5-27.5c11.4-12.6,24.3-27.9,34.4-45.6 c5.2-9.1,7.4-15.9,8.4-26.2c1.4-13.8-2.7-23.2-11.7-27.4c-16.6-7.7-37.2,6.1-47,17.3c-15.2,17.4-25.2,38.7-33,57.3 c-4.4,10.5-8.6,22-13.2,36c-0.8,2.4-1.5,4.8-2.2,7.2c-2.7,9.1-5.2,17.7-11.7,24.3c-14.2,14.5-28.4,28.5-45.3,39.3 c-5.9,3.8-13.8,8.5-22.2,11.5c-3.2,1.1-5.7,1.7-8,1.9c-0.6,0.1-1.3,0.1-1.9,0.1c0,0,0,0,0,0c-3.1,0-3.8-1.7,0-4.8 c19.2-15.8,31.8-32,33.4-55.3c0.8-11.9-4.8-21.5-14.7-25.2c-11.8-4.4-23.8,2.9-31.8,9.8c-15.7,13.6-22.1,30.7-21.3,57.3 c0.2,5.2,0.3,11.2-2.4,15.7c-2.1,3.4-5.9,5.1-10,6.8l-0.3,0.1c-5.8,2.5-14.3,5.6-21.4,3.8c-2.7-0.7-4.5-1.9-5.5-3.8 c-3-5.5,0.8-16,3.6-23.6c1-2.7,1.8-5.1,2.4-7.1c2.8-10.7,0.8-17.8-5.8-21.1c-11.4-5.7-21.4,10.9-25.7,17.9l-0.1,0.2 c-5.1,8.5-11.3,16.7-17.3,24.5c-1.8,2.4-3.7,4.8-5.5,7.3c-8.8,11.8-18.3,23.7-28.9,36.5c-3.4,4.1-6.3,7.5-9.6,10.6 c-0.7,0.6-1.3,1.2-2,1.9c-4.1,3.8-8.4,7.7-11.4,12.7c-2.3,3.7-2.9,7.4-1.9,10.5c0.7,2,2.5,4.8,7.1,6.5c1.8,0.7,3.6,1,5.4,1 c5.2,0,10.6-2.7,16-8.2c4.4-4.4,8-9.6,11.4-14.5c1-1.5,2-2.9,3.1-4.4c5.8-8,12.2-15.9,18.4-23.5l2.4-3c0.5-0.6,1.1-1.3,1.6-2 c2.7-3.4,5.5-6.9,8.7-9.3c1.1-0.8,2.4-1.2,4.2,0.8c0.4,0.5,0.9,1.1,1.5,1.9c0.4,0.5,0.7,1,1.1,1.4c7,8.7,15.8,12.5,27.5,11.9 c9.2-0.5,18.9-3,28-7.3c1.1-0.5,2.2-1.1,3.4-1.8c3.4-1.8,7.2-3.9,10.5-3.7c2,0.1,4,1.4,6,2.7c1.6,1,3.2,2.1,5,2.8 c14.3,5.4,32.1,0.2,54.4-16c10-7.3,18.6-14,26.2-20.5c2-1.7,4-3.5,6.4-5.7c0.3-0.2,0.5-0.5,0.8-0.8c0.9-0.9,2.1-1.7,2.9-1.6 c2.3,0.3,1.1,4.4,1.1,9.4c0.1,9.4,1.2,22.7,10.7,30.4c6.6,5.4,15.7,6.5,27.7,3.2c16.7-4.5,30-16.9,41.8-27.9c1.1-1,2.1-2,3.2-3 c3.2-2.9,6.2-6,9.1-9l1.1-1.2c2.2-2.5,4.1-0.8,4.6,1.4c0.8,3.3,1.6,6.8,3.3,10.1c8.2,16.4,27.8,24.6,47.7,19.8 c5.4-1.3,10.8-3.3,16.6-6.4c3.4-1.8,5-0.1,4.3,1.9c-0.8,2.4-2.1,5-3.4,7.4c-0.6,1.1-1.1,2.1-1.6,3.1c-2.6,5.3-4.9,10.2-6.8,15.3 c-3.7,10.2-6.2,23.8,2.8,30.8c3.6,2.8,6.8,2.7,8.8,2.1c6.7-2,10.5-11.8,13.6-20.8c0.2-0.7,0.5-1.4,0.7-1.9 c1.7-4.7,3.5-9.5,5.3-14.1c2.8-7.4,5.8-15,8.2-22.7c2.4-7.6,5.6-15.1,8.7-22.4c2-4.7,4.1-9.6,6-14.5c4.7-12.4,9.3-23,13.9-32.5 c1.8-3.7,3.6-7.4,5.4-11.1c3.8-7.8,7.7-15.9,11.7-23.6c5.9-11.3,11.3-22.8,16.5-34c4.5-9.6,9.1-19.6,14.1-29.3c1-1.9,2-4.1,3.2-6.4 c2.5-5,5.3-10.8,7.7-14.8c2.2-3.7,4.3-7.7,6.6-12.1c0.6-1.2,1.3-2.5,2-3.8C720.7,35.4,728.1,21.6,717.2,14.9z M555.8,187.7 c10.1-8.5,23.1-14,36.1-15.5c7.9-0.9,14.8,0,17.9,8.3c3.4,9-0.1,16.3-5.3,23.7c-8.1,11.4-18.6,20.3-31.6,25.7 c-4.5,1.9-9.3,3.4-14.2,3.7c-7.3,0.4-13.4-4.5-16.1-11C537.1,209.4,545.9,195.9,555.8,187.7z M508.9,73.7c2.4-1.3,6.3-1.3,7.1,2.3 c0.9,3.8-3.2,20.8-33.4,52.7c-1.3,1.3-12.1,13.4-13.9,14.1c-2.8,1.1-2.4-1.9-1.9-3.7c1.6-5.4,5.1-12.8,7.5-17.9 c5.8-12.3,13.6-24.2,22.1-34.8C500,82.1,504,76.5,508.9,73.7z M349.9,177.7c9.1-2.6,5.6,12.3,4.2,16.2c-1.5,4.5-4.2,8.7-6.8,12.5 c-2.2,3.3-5.4,8.4-8.9,10.4c-5.3,3-6.2-2.9-5.9-6.7c0.4-5.2,1.4-10.4,3.5-15.2c1.7-3.9,3.8-7.3,6.4-10.6 C344.3,181.8,346.7,178.6,349.9,177.7z"/>
    </symbol>
</svg>